<?xml version="1.0" standalone="no"?>
<!DOCTYPE svg PUBLIC "-//W3C//DTD SVG 20010904//EN"
 "http://www.w3.org/TR/2001/REC-SVG-20010904/DTD/svg10.dtd">
<svg version="1.0" xmlns="http://www.w3.org/2000/svg"
 width="128.000000pt" height="128.000000pt" viewBox="0 0 128.000000 128.000000"
 preserveAspectRatio="xMidYMid meet">

<g transform="translate(0.000000,128.000000) scale(0.100000,-0.100000)"
fill="#000000" stroke="none">
<path d="M446 1152 c-7 -12 19 -35 42 -39 9 -1 21 -8 27 -15 8 -10 55 -21 55
-13 0 2 -15 19 -33 39 -25 27 -36 33 -45 24 -8 -8 -15 -8 -26 1 -8 7 -17 8
-20 3z"/>
<path d="M477 1093 c-12 -11 -8 -23 8 -23 8 0 15 -4 15 -9 0 -5 -7 -11 -15
-15 -16 -6 -21 -51 -7 -60 4 -2 8 8 7 22 0 20 5 27 18 26 9 -1 17 1 17 5 0 14
-37 61 -43 54z"/>
<path d="M571 1048 c-23 -50 -11 -78 17 -40 10 13 21 20 25 16 11 -11 8 -49
-5 -62 -8 -8 -8 -12 -1 -12 16 0 32 23 39 57 5 25 2 31 -15 36 -13 3 -21 13
-21 26 0 34 -18 24 -39 -21z"/>
<path d="M708 1083 c6 -2 12 -11 12 -18 0 -8 16 -22 36 -31 29 -14 40 -15 55
-6 22 14 79 16 79 3 0 -4 -23 -11 -52 -14 -30 -4 -60 -14 -72 -26 l-21 -20
-30 57 c-19 37 -31 50 -33 39 -2 -9 6 -33 19 -53 18 -30 21 -45 16 -99 -3 -40
-11 -70 -21 -80 -9 -9 -16 -12 -16 -7 0 5 -10 12 -23 16 -12 3 -35 19 -51 35
-24 25 -27 33 -16 46 7 8 8 15 2 15 -5 0 -15 -7 -22 -15 -10 -13 -10 -19 5
-35 16 -18 16 -20 2 -20 -10 0 -17 6 -17 14 0 7 -7 20 -16 27 -9 7 -20 24 -25
37 -8 20 -12 22 -24 12 -13 -11 -10 -18 25 -50 22 -20 40 -44 40 -52 0 -8 15
-27 33 -42 33 -28 33 -29 19 -61 -11 -24 -20 -31 -33 -28 -11 3 -19 9 -19 14
0 5 -6 9 -13 9 -8 0 -19 10 -26 23 -7 12 -22 27 -34 32 -12 6 -27 21 -33 35
-32 67 -36 79 -30 88 3 6 1 14 -5 17 -7 5 -9 24 -5 54 5 38 4 42 -5 21 -6 -14
-8 -47 -5 -73 3 -29 1 -45 -4 -42 -6 4 -10 12 -10 20 0 21 -49 55 -80 55 -16
0 -42 -14 -67 -35 -22 -19 -43 -32 -46 -29 -6 6 21 30 80 72 22 15 41 20 57
16 26 -6 66 24 66 49 0 6 -10 0 -21 -16 -18 -23 -26 -27 -53 -22 -27 5 -39 0
-86 -41 -30 -25 -57 -52 -58 -58 -10 -30 -43 -95 -52 -101 -16 -10 -12 -47 10
-90 11 -21 17 -48 14 -60 -3 -13 2 -27 15 -39 l21 -19 -32 -39 c-25 -32 -28
-42 -17 -49 20 -12 35 -11 22 2 -8 8 -5 20 11 44 16 26 30 35 62 40 37 6 40 9
36 31 -5 28 -17 31 -31 7 -9 -16 -12 -16 -21 -3 -5 8 -7 21 -4 29 3 10 -2 9
-16 -4 -26 -24 -37 -12 -17 17 33 47 43 55 77 62 20 3 51 22 72 43 45 44 58
40 23 -7 -14 -19 -25 -38 -25 -43 0 -4 14 -25 30 -46 25 -30 29 -42 22 -61 -6
-15 -11 -19 -16 -12 -14 23 -47 11 -89 -32 -24 -24 -41 -48 -39 -54 1 -5 -8
-9 -22 -9 -17 0 -23 4 -19 13 3 8 0 14 -6 14 -6 0 -11 -3 -12 -7 0 -5 -2 -16
-4 -26 -4 -23 20 -33 40 -17 22 18 31 4 12 -18 -15 -17 -15 -20 13 -50 28 -31
70 -43 70 -21 0 6 -7 8 -16 5 -10 -4 -14 -1 -11 6 2 7 19 13 38 13 28 0 35 4
40 25 17 73 49 111 63 75 3 -8 1 -15 -4 -15 -5 0 -12 -16 -16 -36 -3 -19 -17
-48 -30 -63 -12 -15 -25 -41 -29 -57 -5 -28 -5 -28 5 -4 6 14 21 35 32 47 12
13 31 46 42 74 14 35 31 57 51 68 60 33 85 54 85 71 0 24 -42 50 -82 50 -23 0
-37 7 -46 21 -19 30 -3 42 55 43 60 0 148 -49 147 -81 0 -18 3 -20 22 -11 13
6 29 8 36 6 7 -3 17 -5 21 -4 5 0 13 -6 18 -15 5 -9 25 -20 44 -23 22 -5 35
-13 35 -23 0 -10 -5 -13 -17 -8 -42 16 -70 16 -82 1 -8 -9 -20 -16 -27 -16 -8
0 -14 -4 -14 -10 0 -5 9 -10 19 -10 11 0 27 -7 35 -16 14 -14 14 -17 1 -30 -8
-9 -15 -19 -15 -24 0 -12 82 -81 108 -91 31 -12 31 -71 0 -93 -33 -23 -56 -20
-90 14 -26 26 -29 35 -24 65 4 20 3 35 -2 35 -13 0 -22 -36 -22 -86 0 -23 -6
-46 -13 -52 -20 -17 -66 -25 -80 -14 -6 5 -28 15 -47 21 -45 15 -98 63 -106
96 -3 14 -11 28 -17 32 -15 9 0 -59 16 -69 19 -13 -31 -50 -62 -46 -18 2 -27
10 -29 25 -5 31 -22 29 -22 -2 0 -14 15 -48 33 -75 26 -38 36 -47 45 -38 9 9
12 9 12 0 0 -8 9 -10 28 -6 24 7 25 5 14 -9 -15 -18 -70 -20 -91 -3 -11 9 -13
8 -9 -4 7 -22 124 -19 146 4 11 11 13 19 6 24 -17 12 -24 40 -11 51 9 6 35 3
82 -10 39 -11 89 -19 112 -17 47 2 73 -14 73 -48 0 -14 11 -31 29 -43 32 -23
51 -27 51 -11 0 7 6 7 18 1 18 -10 72 -4 72 8 0 22 -24 128 -31 137 -6 7 0 15
16 22 46 21 115 93 126 132 13 43 5 123 -15 143 -7 7 -16 23 -20 35 -4 12 -26
39 -48 61 -33 31 -40 43 -35 64 4 13 14 28 23 31 21 8 64 -30 64 -56 0 -10 4
-18 9 -18 5 0 12 -13 15 -30 3 -16 9 -43 12 -60 8 -41 18 -38 34 10 7 22 17
40 22 40 4 0 8 32 8 71 0 64 -2 70 -18 65 -16 -5 -23 5 -43 66 -31 95 -49 121
-104 147 -47 22 -61 37 -23 25 22 -6 22 -6 3 12 -15 15 -34 19 -92 19 -63 0
-77 3 -97 23 -13 12 -28 22 -32 21 -5 0 -3 -3 4 -6z m28 -229 c-4 -9 -9 -15
-11 -12 -3 3 -3 13 1 22 4 9 9 15 11 12 3 -3 3 -13 -1 -22z m-296 -15 c0 -6
-4 -7 -10 -4 -5 3 -10 11 -10 16 0 6 5 7 10 4 6 -3 10 -11 10 -16z m-130 -60
c0 -5 -7 -9 -15 -9 -8 0 -15 7 -15 15 0 9 6 12 15 9 8 -4 15 -10 15 -15z m95
-19 c17 -19 17 -20 -9 -31 -35 -16 -53 -1 -37 30 14 26 23 26 46 1z m255 5
c-14 -17 -30 -20 -30 -6 0 5 8 12 18 14 9 3 19 5 21 6 2 0 -2 -6 -9 -14z m161
-99 c24 -24 52 -60 63 -80 18 -33 18 -37 2 -71 -9 -19 -20 -35 -25 -35 -4 0
-12 28 -17 62 l-9 62 -42 11 c-23 5 -50 18 -60 27 -16 17 -16 19 7 43 13 14
27 25 30 25 4 0 27 -20 51 -44z m-368 -26 c-13 -5 -23 -14 -23 -20 0 -5 -7
-10 -15 -10 -18 0 -20 26 -2 33 6 3 23 5 37 6 25 0 25 0 3 -9z m336 -86 c3 -3
0 -9 -5 -14 -6 -6 -16 -2 -28 11 -17 20 -17 21 6 14 13 -4 25 -9 27 -11z
m-499 -11 c0 -26 -16 -47 -29 -39 -14 9 -14 29 1 44 17 17 28 15 28 -5z m65
-33 c3 -5 2 -10 -4 -10 -5 0 -13 5 -16 10 -3 6 -2 10 4 10 5 0 13 -4 16 -10z
m610 -1 c-4 -5 0 -18 9 -28 19 -21 14 -27 -43 -55 -43 -20 -41 -20 -41 7 0 13
-5 28 -11 34 -7 7 -2 15 16 27 26 17 28 17 53 -6 15 -12 21 -15 13 -6 -11 15
-8 38 5 38 3 0 2 -5 -1 -11z m-655 -15 c0 -8 -4 -12 -10 -9 -5 3 -10 10 -10
16 0 5 5 9 10 9 6 0 10 -7 10 -16z m520 -18 c-1 -16 -25 -46 -38 -46 -5 0 -8
9 -5 20 4 15 0 20 -16 20 -28 0 -27 18 2 22 31 5 57 -2 57 -16z m181 -85 c-17
-30 -53 -64 -85 -79 -26 -11 -27 -11 -24 10 2 15 13 24 35 30 17 5 42 21 55
37 26 32 35 33 19 2z m-316 -151 c4 -6 -9 -10 -32 -9 -34 1 -35 2 -13 9 35 11
38 11 45 0z m194 -46 c-6 -7 -15 -11 -21 -8 -5 3 -4 12 3 20 6 7 15 11 21 8 5
-3 4 -12 -3 -20z m31 -45 c0 -5 -6 -9 -14 -9 -8 0 -16 -5 -18 -11 -5 -15 -38
0 -38 18 0 10 7 14 20 10 14 -3 20 0 20 10 0 13 3 13 15 3 8 -7 15 -16 15 -21z
m-84 0 c10 -17 -13 -36 -27 -22 -12 12 -4 33 11 33 5 0 12 -5 16 -11z"/>
<path d="M958 1003 c7 -3 16 -2 19 1 4 3 -2 6 -13 5 -11 0 -14 -3 -6 -6z"/>
<path d="M1031 954 c0 -11 3 -14 6 -6 3 7 2 16 -1 19 -3 4 -6 -2 -5 -13z"/>
<path d="M1042 915 c0 -11 3 -29 8 -40 11 -25 11 1 0 35 -6 20 -8 21 -8 5z"/>
<path d="M1060 841 c0 -6 5 -13 10 -16 6 -3 10 1 10 9 0 9 -4 16 -10 16 -5 0
-10 -4 -10 -9z"/>
<path d="M280 670 c0 -5 4 -10 9 -10 6 0 13 5 16 10 3 6 -1 10 -9 10 -9 0 -16
-4 -16 -10z"/>
</g>
</svg>
