<?xml version="1.0" standalone="no"?><!DOCTYPE svg PUBLIC "-//W3C//DTD SVG 1.1//EN" "http://www.w3.org/Graphics/SVG/1.1/DTD/svg11.dtd"><svg t="1637120466749" class="icon" viewBox="0 0 1024 1024" version="1.1" xmlns="http://www.w3.org/2000/svg" p-id="1010" xmlns:xlink="http://www.w3.org/1999/xlink" width="200" height="200"><defs><style type="text/css"></style></defs><path d="M522.1376 936.6016c-21.2992 0-40.96-11.3664-51.5584-29.952l-46.7456-81.8176c-97.6384-18.0224-186.4704-63.0272-250.4192-126.976C106.496 631.0912 69.632 546.3552 69.632 459.3152c0-206.592 203.52-374.6816 453.6832-374.6816s453.6832 168.0896 453.6832 374.6816c0 177.3056-151.808 331.1616-361.4208 366.848l-40.7552 78.4384a59.2896 59.2896 0 0 1-51.5072 32h-1.1776z m1.1776-790.5792c-216.2688 0-392.2432 140.544-392.2432 313.2416 0 145.3568 128.8704 273.8688 306.3808 305.6128 16.1792 2.8672 30.0544 12.6464 38.0928 26.7264l46.4384 81.3056 40.6016-78.1312c7.8848-15.2064 22.8352-26.0096 39.936-28.7744 181.3504-29.7984 312.9856-158.8224 312.9856-306.7392 0.0512-172.6976-175.9232-313.2416-392.192-313.2416z" fill="#283033" p-id="1011"></path><path d="M687.9232 608.3584c-16.9472 0-30.72-13.7728-30.72-30.72v-140.288c0-16.9472 13.7728-30.72 30.72-30.72s30.72 13.7728 30.72 30.72v140.3392c0 16.9472-13.7728 30.6688-30.72 30.6688z" fill="#E92385" p-id="1012"></path><path d="M685.4144 339.6096m-37.376 0a37.376 37.376 0 1 0 74.752 0 37.376 37.376 0 1 0-74.752 0Z" fill="#E92385" p-id="1013"></path><path d="M540.3136 297.728c-16.9472 0-30.72 13.7728-30.72 30.72v96.6656c-1.3824-0.2048-2.7648-0.3072-4.1984-0.3072H400.128c-0.256 0-0.4608 0.0512-0.7168 0.0512V328.448c0-16.9472-13.7728-30.72-30.72-30.72s-30.72 13.7728-30.72 30.72v254.1056c0 16.9472 13.7728 30.72 30.72 30.72s30.72-13.7728 30.72-30.72V486.1952c0.256 0 0.4608 0.0512 0.7168 0.0512H505.344c1.4336 0 2.816-0.1536 4.1984-0.3072v96.6656c0 16.9472 13.7728 30.72 30.72 30.72s30.72-13.7728 30.72-30.72V328.448c0.0512-16.9984-13.7216-30.72-30.6688-30.72z" fill="#E92385" p-id="1014"></path></svg>